<?xml version="1.0" standalone="no"?>
<!DOCTYPE svg PUBLIC "-//W3C//DTD SVG 20010904//EN"
 "http://www.w3.org/TR/2001/REC-SVG-20010904/DTD/svg10.dtd">
<svg version="1.0" xmlns="http://www.w3.org/2000/svg"
 width="938.000000pt" height="1280.000000pt" viewBox="0 0 938.000000 1280.000000"
 preserveAspectRatio="xMidYMid meet">
<g transform="translate(0.000000,1280.000000) scale(0.100000,-0.100000)"
fill="#000000" stroke="none">
<path d="M4575 12707 c-175 -146 -205 -173 -130 -116 39 30 107 84 151 121 45
38 87 68 94 68 6 0 44 -28 83 -62 40 -35 114 -96 165 -137 50 -40 92 -75 92
-78 0 -6 -138 101 -245 191 -49 42 -92 75 -95 76 -3 0 -48 -37 -100 -81 -138
-118 -374 -293 -540 -401 -889 -581 -1883 -859 -3287 -918 -142 -6 -332 -14
-423 -18 l-165 -7 -22 -285 c-104 -1359 -136 -2138 -115 -2842 17 -553 41
-886 97 -1328 163 -1289 549 -2436 1172 -3482 619 -1040 1526 -2019 2658
-2870 181 -135 463 -337 610 -435 l116 -77 197 133 c108 73 192 128 186 122
-22 -24 -370 -260 -382 -261 -7 0 -71 38 -143 85 -71 46 -129 82 -129 80 0 -3
61 -45 135 -95 l135 -90 137 91 c566 378 1091 789 1553 1215 1681 1552 2621
3370 2899 5614 124 991 132 1965 31 3430 -35 503 -71 984 -76 1006 -4 21 -11
22 -156 27 -867 32 -1142 54 -1593 127 -1055 170 -1895 545 -2675 1194 -63 52
-117 95 -120 95 -3 0 -55 -41 -115 -92z m486 -224 c13 -16 12 -17 -3 -4 -10 7
-18 15 -18 17 0 8 8 3 21 -13z m79 -59 c0 -3 -13 4 -30 16 -16 12 -30 24 -30
26 0 3 14 -4 30 -16 17 -12 30 -24 30 -26z m31 -21 c13 -16 12 -17 -3 -4 -17
13 -22 21 -14 21 2 0 10 -8 17 -17z m89 -11987 c0 -2 -8 -10 -17 -17 -16 -13
-17 -12 -4 4 13 16 21 21 21 13z m-110 -80 c0 -3 -15 -14 -32 -26 l-33 -22 30
26 c31 27 35 29 35 22z"/>
<path d="M4349 12523 c-13 -16 -12 -17 4 -4 9 7 17 15 17 17 0 8 -8 3 -21 -13z"/>
<path d="M4309 12493 c-13 -16 -12 -17 4 -4 16 13 21 21 13 21 -2 0 -10 -8
-17 -17z"/>
<path d="M4269 12463 c-13 -16 -12 -17 4 -4 9 7 17 15 17 17 0 8 -8 3 -21 -13z"/>
<path d="M4320 256 c0 -3 20 -19 45 -36 25 -17 45 -29 45 -26 0 3 -20 19 -45
36 -25 17 -45 29 -45 26z"/>
</g>
</svg>
